# xmcd
#
# Track frame offsets:
#	150
#	25825
#	49310
#	63735
#	83386
#	105836
#	128310
#	147286
#	165927
#	188589
#	209523
#	226881
#	251389
#	268880
#	287247
#	311768
#
# Disc length: 4421
#
# Revision: 1
# Processed by: cddbd v1.5.1PL0 Copyright (c) Steve Scherf et al.
# Submitted via: dBpowerAMP V4.0
# Normalized: r0:TDELIM( - )
#
DISCID=d4114310
DTITLE=Mixed by Mark Jones - swiss trance club vol. 1
DYEAR=2002
DGENRE=Trance
TTITLE0=DJ Loop - Spring 02
TTITLE1=Adi Jay - Dreamland (DJ Loop Mix)
TTITLE2=Empire Project - Skywatcher (Mark Jones Mix)
TTITLE3=DJ Cyglas - Nomansland
TTITLE4=Miss Limit - Read my heart 2002
TTITLE5=DJ Da Bomb - Atlantis
TTITLE6=Styles and Romeo - Field of Dreams
TTITLE7=DJ Cyclas - Catalist (Schwarze Puppen remix)
TTITLE8=Universal Dream - Lost in Love
TTITLE9=DJ Pure - Tekkno.cc
TTITLE10=Marco di Micoli - Anubis - Bookof Darkness (DJ Enegry remix)
TTITLE11=Accenter &Three O - Nights on Acid (No Message mix)
TTITLE12=Silver City - Victim
TTITLE13=DJ Discover - Future
TTITLE14=Dj Mike Nero - Hardcore feelings (Y.O.M.C. remix)
TTITLE15=Mark Jones - New Live
EXTD=
EXTT0=
EXTT1=
EXTT2=
EXTT3=
EXTT4=
EXTT5=
EXTT6=
EXTT7=
EXTT8=
EXTT9=
EXTT10=
EXTT11=
EXTT12=
EXTT13=
EXTT14=
EXTT15=
PLAYORDER=
